<?xml version="1.0" encoding="UTF-8" standalone="no"?>
<svg
   version="1.0"
   width="596pt"
   height="686.30005pt"
   viewBox="0 0 596 686.30005"
   preserveAspectRatio="xMidYMid"
   id="svg146"
   sodipodi:docname="png-transparent-arrow-down-left-next-right-swipe-up-arrow-outline-icon.svg"
   inkscape:export-filename="png-transparent-arrow-down-left-next-right-swipe-up-arrow-outline-icon.svg"
   inkscape:export-xdpi="96"
   inkscape:export-ydpi="96"
   xmlns:inkscape="http://www.inkscape.org/namespaces/inkscape"
   xmlns:sodipodi="http://sodipodi.sourceforge.net/DTD/sodipodi-0.dtd"
   xmlns="http://www.w3.org/2000/svg"
   xmlns:svg="http://www.w3.org/2000/svg">
  <defs
     id="defs150" />
  <sodipodi:namedview
     id="namedview148"
     pagecolor="#505050"
     bordercolor="#ffffff"
     borderopacity="1"
     inkscape:showpageshadow="0"
     inkscape:pageopacity="0"
     inkscape:pagecheckerboard="1"
     inkscape:deskcolor="#505050"
     inkscape:document-units="pt"
     showgrid="false" />
  <g
     transform="matrix(0.1,0,0,-0.1,-162.00001,802.80001)"
     fill="#000000"
     stroke="none"
     id="g144">
    <path
       style="image-rendering:auto"
       d="m 6090,2648 c 495,495 990,990 1485,1485 -245,245 -490,490 -735,735 246.6667,246.6667 493.3333,493.3333 740,740 -246.6667,246.6667 -493.3333,493.3333 -740,740 246.6667,246.6667 493.3333,493.3333 740,740 -314.6944,311.9556 -623.0382,630.5435 -945,935 C 5949.9195,7354.8713 5277.8836,6673.4419 4600,5998 3923.3333,6674.6667 3246.6667,7351.3333 2570,8028 c -314.6667,-314.6667 -629.3333,-629.3333 -944,-944 245.0722,-244.5955 490.405,-488.9294 736,-733 -243.9647,-247.685 -491.0157,-492.3193 -736,-739 246.3333,-246.3333 492.6667,-492.6667 739,-739 -248.3333,-248.3333 -496.6667,-496.6667 -745,-745 992.8857,-987.7806 1983.1735,-1978.1854 2979,-2963 500.4193,490.851 994.6415,988.0402 1491,1483 z m -2778,198 c -427.3333,427.3333 -854.6667,854.6667 -1282,1282 177.0778,175.906 349.7147,356.5227 533,526 685.4016,-663.0669 1351.1695,-1346.29 2035,-2011 684.8182,667.0517 1358.0568,1345.9475 2036,2020 178.9283,-178.0712 357.5939,-356.4056 536,-535 C 6313.4981,3272.8371 5460.1578,2414.4792 4600,1563 4168.2008,1988.1622 3741.0334,2418.0434 3312,2846 Z m 3,1479 c -428.6667,427.3333 -857.3333,854.6667 -1286,1282 180.3333,180.3333 360.6667,360.6667 541,541 677.2619,-679.0723 1354.2622,-1358.4054 2031,-2038 677.4463,676.5537 1354.4306,1353.5696 2032,2030 182.5208,-173.6984 358.1268,-354.5489 537,-532 C 6314.428,4752.9053 5458.4132,3898.2536 4603,3043 4172.1823,3468.8304 3744.2912,3897.6285 3315,4325 Z m -3,1481 c -427.3333,427.3333 -854.6667,854.6667 -1282,1282 179.073,179.2608 358.4055,358.2617 538,537 677.0008,-678.9992 1354.0008,-1357.9992 2031,-2037 678.4057,678.5945 1357.0721,1356.928 2036,2035 178.8557,-177.811 357.1887,-356.1446 535,-535 C 6313.4981,6232.8371 5460.1578,5374.4792 4600,4523 4168.2008,4948.1622 3741.0334,5378.0434 3312,5806 Z"
       id="path142" />
  </g>
</svg>
